<svg xmlns="http://www.w3.org/2000/svg" xmlns:xlink="http://www.w3.org/1999/xlink" width="60" zoomAndPan="magnify" viewBox="0 0 45 44.999999" height="60" preserveAspectRatio="xMidYMid meet" version="1.0"><path fill="#ffffe8" d="M 28.453125 9.074219 C 28.453125 14.082031 24.390625 18.144531 19.378906 18.144531 C 14.367188 18.144531 10.304688 14.082031 10.304688 9.074219 C 10.304688 4.0625 14.367188 0 19.378906 0 C 24.390625 0 28.453125 4.0625 28.453125 9.074219 " fill-opacity="1" fill-rule="nonzero"/><path fill="#ffffe8" d="M 21.742188 34.328125 C 21.742188 28.8125 25.234375 24.09375 30.125 22.269531 C 28.492188 21.183594 26.691406 20.335938 24.761719 19.777344 C 24.527344 19.894531 24.289062 20.007812 24.042969 20.113281 C 22.5625 20.738281 20.992188 21.054688 19.378906 21.054688 C 17.761719 21.054688 16.191406 20.738281 14.714844 20.113281 C 14.46875 20.007812 14.226562 19.894531 13.992188 19.777344 C 5.914062 22.109375 0.0078125 29.558594 0.0078125 38.386719 L 22.398438 38.386719 C 21.972656 37.109375 21.742188 35.746094 21.742188 34.328125 " fill-opacity="1" fill-rule="nonzero"/><path fill="#ffffe8" d="M 41.808594 34.328125 C 41.808594 35.285156 41.03125 36.0625 40.074219 36.0625 L 36.339844 36.0625 L 36.339844 39.800781 C 36.339844 40.753906 35.558594 41.535156 34.605469 41.535156 C 33.652344 41.535156 32.871094 40.753906 32.871094 39.800781 L 32.871094 36.0625 L 29.136719 36.0625 C 28.183594 36.0625 27.402344 35.285156 27.402344 34.328125 C 27.402344 33.375 28.183594 32.597656 29.136719 32.597656 L 32.871094 32.597656 L 32.871094 28.859375 C 32.871094 27.90625 33.652344 27.125 34.605469 27.125 C 35.558594 27.125 36.339844 27.90625 36.339844 28.859375 L 36.339844 32.597656 L 40.074219 32.597656 C 41.03125 32.597656 41.808594 33.375 41.808594 34.328125 Z M 34.605469 23.941406 C 28.867188 23.941406 24.21875 28.59375 24.21875 34.328125 C 24.21875 40.066406 28.867188 44.71875 34.605469 44.71875 C 40.34375 44.71875 44.992188 40.066406 44.992188 34.328125 C 44.992188 28.59375 40.34375 23.941406 34.605469 23.941406 " fill-opacity="1" fill-rule="nonzero"/></svg>