<svg xmlns="http://www.w3.org/2000/svg" xmlns:xlink="http://www.w3.org/1999/xlink" width="40" zoomAndPan="magnify" viewBox="0 0 30 30.000001" height="40" preserveAspectRatio="xMidYMid meet" version="1.0"><defs><g/><clipPath id="f53c17a76f"><path d="M 6 0 L 26 0 L 26 29.03125 L 6 29.03125 Z M 6 0 " clip-rule="nonzero"/></clipPath><clipPath id="35093b0919"><rect x="0" width="20" y="0" height="30"/></clipPath></defs><g clip-path="url(#f53c17a76f)"><g transform="matrix(1, 0, 0, 1, 6, 0.000000000000005692)"><g clip-path="url(#35093b0919)"><g fill="#ffffe8" fill-opacity="1"><g transform="translate(0.796071, 22.237476)"><g><path d="M 7.375 0.25 C 6.15625 0.25 5.085938 0.0351562 4.171875 -0.390625 C 3.253906 -0.828125 2.546875 -1.445312 2.046875 -2.25 C 1.554688 -3.050781 1.3125 -3.984375 1.3125 -5.046875 C 1.3125 -6.285156 1.625 -7.289062 2.25 -8.0625 C 2.882812 -8.84375 3.800781 -9.472656 5 -9.953125 L 5.046875 -10.203125 C 4.441406 -10.929688 4.019531 -11.578125 3.78125 -12.140625 C 3.539062 -12.710938 3.421875 -13.351562 3.421875 -14.0625 C 3.421875 -14.789062 3.59375 -15.441406 3.9375 -16.015625 C 4.28125 -16.597656 4.773438 -17.054688 5.421875 -17.390625 C 6.066406 -17.722656 6.835938 -17.890625 7.734375 -17.890625 C 8.566406 -17.890625 9.289062 -17.742188 9.90625 -17.453125 C 10.53125 -17.160156 11.007812 -16.75 11.34375 -16.21875 C 11.675781 -15.6875 11.84375 -15.050781 11.84375 -14.3125 C 11.84375 -13.21875 11.507812 -12.285156 10.84375 -11.515625 C 10.1875 -10.742188 9.191406 -10.113281 7.859375 -9.625 L 7.84375 -9.375 L 11.984375 -3.90625 C 12.304688 -4.488281 12.53125 -5.171875 12.65625 -5.953125 C 12.78125 -6.742188 12.84375 -7.625 12.84375 -8.59375 L 12.84375 -8.96875 L 14.625 -8.96875 C 14.625 -6.1875 14.128906 -4.03125 13.140625 -2.5 C 13.492188 -2.125 13.785156 -1.867188 14.015625 -1.734375 C 14.242188 -1.597656 14.484375 -1.53125 14.734375 -1.53125 C 14.984375 -1.53125 15.222656 -1.566406 15.453125 -1.640625 L 15.625 -1.59375 L 15.921875 -0.15625 C 15.773438 -0.0625 15.582031 0.0078125 15.34375 0.0625 C 15.101562 0.125 14.863281 0.15625 14.625 0.15625 C 14.0625 0.15625 13.566406 0.0390625 13.140625 -0.1875 C 12.722656 -0.425781 12.347656 -0.78125 12.015625 -1.25 L 11.765625 -1.25 C 10.773438 -0.25 9.3125 0.25 7.375 0.25 Z M 6.796875 -10.734375 C 7.859375 -11.179688 8.644531 -11.664062 9.15625 -12.1875 C 9.664062 -12.71875 9.921875 -13.398438 9.921875 -14.234375 C 9.921875 -14.847656 9.722656 -15.335938 9.328125 -15.703125 C 8.941406 -16.078125 8.410156 -16.265625 7.734375 -16.265625 C 7.035156 -16.265625 6.46875 -16.0625 6.03125 -15.65625 C 5.601562 -15.25 5.390625 -14.695312 5.390625 -14 C 5.390625 -13.488281 5.488281 -13.003906 5.6875 -12.546875 C 5.894531 -12.097656 6.265625 -11.492188 6.796875 -10.734375 Z M 7.453125 -1.5 C 8.785156 -1.5 9.890625 -1.835938 10.765625 -2.515625 L 5.84375 -8.859375 C 5.070312 -8.492188 4.472656 -8.015625 4.046875 -7.421875 C 3.628906 -6.828125 3.421875 -6.070312 3.421875 -5.15625 C 3.421875 -4.382812 3.585938 -3.722656 3.921875 -3.171875 C 4.253906 -2.628906 4.722656 -2.210938 5.328125 -1.921875 C 5.929688 -1.640625 6.640625 -1.5 7.453125 -1.5 Z M 7.453125 -1.5 "/></g></g></g></g></g></g></svg>