<svg xmlns="http://www.w3.org/2000/svg" xmlns:xlink="http://www.w3.org/1999/xlink" width="40" zoomAndPan="magnify" viewBox="0 0 30 30.000001" height="40" preserveAspectRatio="xMidYMid meet" version="1.0"><defs><clipPath id="3fe27d0efc"><path d="M 6 8 L 28.628906 8 L 28.628906 22 L 6 22 Z M 6 8 " clip-rule="nonzero"/></clipPath><clipPath id="9220c4f186"><path d="M 1.046875 1.230469 L 20 1.230469 L 20 28.8125 L 1.046875 28.8125 Z M 1.046875 1.230469 " clip-rule="nonzero"/></clipPath></defs><g clip-path="url(#3fe27d0efc)"><path fill="#ffffff" d="M 28.386719 14.113281 L 22.972656 8.699219 C 22.835938 8.5625 22.683594 8.460938 22.507812 8.386719 C 22.332031 8.3125 22.148438 8.277344 21.957031 8.277344 C 21.765625 8.277344 21.582031 8.3125 21.40625 8.386719 C 21.230469 8.460938 21.074219 8.5625 20.941406 8.699219 C 20.804688 8.832031 20.703125 8.988281 20.628906 9.164062 C 20.558594 9.339844 20.519531 9.523438 20.519531 9.714844 C 20.519531 9.902344 20.558594 10.085938 20.628906 10.261719 C 20.703125 10.4375 20.804688 10.59375 20.941406 10.730469 L 23.90625 13.691406 L 8.226562 13.691406 C 8.035156 13.691406 7.851562 13.730469 7.675781 13.800781 C 7.5 13.875 7.347656 13.980469 7.210938 14.113281 C 7.078125 14.25 6.972656 14.402344 6.898438 14.578125 C 6.828125 14.753906 6.789062 14.9375 6.789062 15.128906 C 6.789062 15.320312 6.828125 15.503906 6.898438 15.679688 C 6.972656 15.855469 7.078125 16.007812 7.210938 16.144531 C 7.347656 16.277344 7.5 16.382812 7.675781 16.457031 C 7.851562 16.527344 8.035156 16.566406 8.226562 16.566406 L 23.90625 16.566406 L 20.941406 19.527344 C 20.804688 19.664062 20.703125 19.820312 20.628906 19.996094 C 20.558594 20.171875 20.519531 20.355469 20.519531 20.542969 C 20.519531 20.734375 20.558594 20.917969 20.628906 21.09375 C 20.703125 21.269531 20.804688 21.425781 20.941406 21.558594 C 21.074219 21.695312 21.230469 21.796875 21.40625 21.871094 C 21.582031 21.945312 21.765625 21.980469 21.957031 21.980469 C 22.148438 21.980469 22.332031 21.945312 22.507812 21.871094 C 22.683594 21.796875 22.835938 21.695312 22.972656 21.558594 L 28.386719 16.144531 C 28.523438 16.007812 28.625 15.855469 28.699219 15.679688 C 28.769531 15.503906 28.808594 15.320312 28.808594 15.128906 C 28.808594 14.9375 28.769531 14.753906 28.699219 14.578125 C 28.625 14.402344 28.523438 14.25 28.386719 14.113281 Z M 28.386719 14.113281 " fill-opacity="1" fill-rule="nonzero"/></g><g clip-path="url(#9220c4f186)"><path fill="#ffffff" d="M 17.800781 23.265625 C 17.609375 23.265625 17.425781 23.300781 17.25 23.375 C 17.074219 23.449219 16.917969 23.550781 16.785156 23.6875 C 16.648438 23.820312 16.546875 23.976562 16.472656 24.152344 C 16.398438 24.328125 16.363281 24.511719 16.363281 24.703125 L 16.363281 26.136719 L 3.917969 26.136719 L 3.917969 4.121094 L 16.363281 4.121094 L 16.363281 5.554688 C 16.363281 5.746094 16.398438 5.929688 16.472656 6.105469 C 16.546875 6.28125 16.648438 6.4375 16.785156 6.570312 C 16.917969 6.707031 17.074219 6.808594 17.25 6.882812 C 17.425781 6.957031 17.609375 6.992188 17.800781 6.992188 C 17.988281 6.992188 18.171875 6.957031 18.347656 6.882812 C 18.523438 6.808594 18.679688 6.707031 18.8125 6.570312 C 18.949219 6.4375 19.054688 6.28125 19.125 6.105469 C 19.199219 5.929688 19.234375 5.746094 19.234375 5.554688 L 19.234375 3.640625 C 19.234375 3.324219 19.175781 3.019531 19.054688 2.726562 C 18.929688 2.433594 18.757812 2.175781 18.535156 1.949219 C 18.308594 1.726562 18.050781 1.550781 17.757812 1.429688 C 17.464844 1.308594 17.160156 1.25 16.839844 1.25 L 3.441406 1.25 C 3.121094 1.25 2.816406 1.308594 2.523438 1.429688 C 2.230469 1.550781 1.972656 1.726562 1.746094 1.949219 C 1.523438 2.175781 1.351562 2.433594 1.230469 2.726562 C 1.109375 3.019531 1.046875 3.324219 1.046875 3.640625 L 1.046875 26.617188 C 1.046875 26.933594 1.109375 27.238281 1.230469 27.53125 C 1.351562 27.824219 1.523438 28.082031 1.746094 28.308594 C 1.972656 28.53125 2.230469 28.707031 2.523438 28.828125 C 2.816406 28.949219 3.121094 29.007812 3.441406 29.007812 L 16.839844 29.007812 C 17.160156 29.007812 17.464844 28.949219 17.757812 28.828125 C 18.050781 28.707031 18.308594 28.53125 18.535156 28.308594 C 18.757812 28.082031 18.929688 27.824219 19.054688 27.53125 C 19.175781 27.238281 19.234375 26.933594 19.234375 26.617188 L 19.234375 24.703125 C 19.234375 24.511719 19.199219 24.328125 19.125 24.152344 C 19.054688 23.976562 18.949219 23.820312 18.8125 23.6875 C 18.679688 23.550781 18.523438 23.449219 18.347656 23.375 C 18.171875 23.300781 17.988281 23.265625 17.800781 23.265625 Z M 17.800781 23.265625 " fill-opacity="1" fill-rule="nonzero"/></g></svg>