<svg xmlns="http://www.w3.org/2000/svg" xmlns:xlink="http://www.w3.org/1999/xlink" width="200" zoomAndPan="magnify" viewBox="0 0 150 44.999999" height="60" preserveAspectRatio="xMidYMid meet" version="1.2"><defs><clipPath id="e421262785"><path d="M 109.707031 0 L 143.808594 0 L 143.808594 44.480469 L 109.707031 44.480469 Z M 109.707031 0 "/></clipPath><clipPath id="e02ae5ade5"><path d="M 83.617188 0 L 117.71875 0 L 117.71875 44.480469 L 83.617188 44.480469 Z M 83.617188 0 "/></clipPath><clipPath id="2397801f22"><path d="M 57.523438 0 L 91.625 0 L 91.625 44.480469 L 57.523438 44.480469 Z M 57.523438 0 "/></clipPath><clipPath id="4a62b37f9a"><path d="M 29.636719 0 L 63.742188 0 L 63.742188 44.480469 L 29.636719 44.480469 Z M 29.636719 0 "/></clipPath><clipPath id="5c6fa678dc"><path d="M 0.375 0 L 34.476562 0 L 34.476562 44.480469 L 0.375 44.480469 Z M 0.375 0 "/></clipPath><clipPath id="6744fb5af7"><rect x="0" width="144" y="0" height="45"/></clipPath></defs><g id="282c5760e1"><g transform="matrix(1,0,0,1,3,0)"><g clip-path="url(#6744fb5af7)"><g clip-rule="nonzero" clip-path="url(#e421262785)"><path style=" stroke:none;fill-rule:evenodd;fill:#000000;fill-opacity:1;" d="M 126.757812 0 C 132.808594 0 137.691406 4.859375 137.691406 10.816406 C 137.691406 16.832031 132.808594 21.691406 126.757812 21.691406 C 120.769531 21.691406 115.882812 16.832031 115.882812 10.816406 C 115.882812 4.859375 120.769531 0 126.757812 0 Z M 126.757812 23.023438 C 136.179688 23.023438 143.800781 32.566406 143.800781 44.308594 C 143.800781 44.367188 143.800781 44.425781 143.800781 44.480469 C 132.457031 44.480469 121.117188 44.480469 109.71875 44.480469 C 109.71875 44.425781 109.71875 44.367188 109.71875 44.308594 C 109.71875 32.566406 117.394531 23.023438 126.757812 23.023438 Z M 126.757812 23.023438 "/></g><g clip-rule="nonzero" clip-path="url(#e02ae5ade5)"><path style=" stroke:none;fill-rule:evenodd;fill:#000000;fill-opacity:1;" d="M 100.667969 0 C 106.714844 0 111.601562 4.859375 111.601562 10.816406 C 111.601562 16.832031 106.714844 21.691406 100.667969 21.691406 C 94.675781 21.691406 89.792969 16.832031 89.792969 10.816406 C 89.792969 4.859375 94.675781 0 100.667969 0 Z M 100.667969 23.023438 C 110.089844 23.023438 117.707031 32.566406 117.707031 44.308594 C 117.707031 44.367188 117.707031 44.425781 117.707031 44.480469 C 106.367188 44.480469 95.027344 44.480469 83.625 44.480469 C 83.625 44.425781 83.625 44.367188 83.625 44.308594 C 83.625 32.566406 91.304688 23.023438 100.667969 23.023438 Z M 100.667969 23.023438 "/></g><g clip-rule="nonzero" clip-path="url(#2397801f22)"><path style=" stroke:none;fill-rule:evenodd;fill:#000000;fill-opacity:1;" d="M 74.574219 0 C 80.625 0 85.507812 4.859375 85.507812 10.816406 C 85.507812 16.832031 80.625 21.691406 74.574219 21.691406 C 68.585938 21.691406 63.699219 16.832031 63.699219 10.816406 C 63.699219 4.859375 68.585938 0 74.574219 0 Z M 74.574219 23.023438 C 83.996094 23.023438 91.617188 32.566406 91.617188 44.308594 C 91.617188 44.367188 91.617188 44.425781 91.617188 44.480469 C 80.273438 44.480469 68.933594 44.480469 57.535156 44.480469 C 57.535156 44.425781 57.535156 44.367188 57.535156 44.308594 C 57.535156 32.566406 65.210938 23.023438 74.574219 23.023438 Z M 74.574219 23.023438 "/></g><g clip-rule="nonzero" clip-path="url(#4a62b37f9a)"><path style=" stroke:none;fill-rule:evenodd;fill:#000000;fill-opacity:1;" d="M 46.6875 0 C 52.738281 0 57.625 4.859375 57.625 10.816406 C 57.625 16.832031 52.738281 21.691406 46.6875 21.691406 C 40.699219 21.691406 35.8125 16.832031 35.8125 10.816406 C 35.8125 4.859375 40.699219 0 46.6875 0 Z M 46.6875 23.023438 C 56.109375 23.023438 63.730469 32.566406 63.730469 44.308594 C 63.730469 44.367188 63.730469 44.425781 63.730469 44.480469 C 52.390625 44.480469 41.046875 44.480469 29.648438 44.480469 C 29.648438 44.425781 29.648438 44.367188 29.648438 44.308594 C 29.648438 32.566406 37.324219 23.023438 46.6875 23.023438 Z M 46.6875 23.023438 "/></g><g clip-rule="nonzero" clip-path="url(#5c6fa678dc)"><path style=" stroke:none;fill-rule:evenodd;fill:#000000;fill-opacity:1;" d="M 17.425781 0 C 23.476562 0 28.359375 4.859375 28.359375 10.816406 C 28.359375 16.832031 23.476562 21.691406 17.425781 21.691406 C 11.4375 21.691406 6.550781 16.832031 6.550781 10.816406 C 6.550781 4.859375 11.4375 0 17.425781 0 Z M 17.425781 23.023438 C 26.847656 23.023438 34.46875 32.566406 34.46875 44.308594 C 34.46875 44.367188 34.46875 44.425781 34.46875 44.480469 C 23.125 44.480469 11.785156 44.480469 0.386719 44.480469 C 0.386719 44.425781 0.386719 44.367188 0.386719 44.308594 C 0.386719 32.566406 8.0625 23.023438 17.425781 23.023438 Z M 17.425781 23.023438 "/></g></g></g></g></svg>