<svg xmlns="http://www.w3.org/2000/svg" xmlns:xlink="http://www.w3.org/1999/xlink" width="80" zoomAndPan="magnify" viewBox="0 0 60 30.000001" height="40" preserveAspectRatio="xMidYMid meet" version="1.2"><defs><clipPath id="ed5fb2e165"><path d="M 36.867188 1.050781 L 57.460938 1.050781 L 57.460938 28.035156 L 36.867188 28.035156 Z M 36.867188 1.050781 "/></clipPath><clipPath id="8967b432c3"><path d="M 19.0625 1.050781 L 39.65625 1.050781 L 39.65625 28.035156 L 19.0625 28.035156 Z M 19.0625 1.050781 "/></clipPath><clipPath id="8f34c02631"><path d="M 0.59375 1.050781 L 21.1875 1.050781 L 21.1875 28.035156 L 0.59375 28.035156 Z M 0.59375 1.050781 "/></clipPath><clipPath id="536936e97a"><rect x="0" width="58" y="0" height="29"/></clipPath></defs><g id="071c449d3e"><g transform="matrix(1,0,0,1,1,0.000000000000005662)"><g clip-path="url(#536936e97a)"><g clip-rule="nonzero" clip-path="url(#ed5fb2e165)"><path style=" stroke:none;fill-rule:evenodd;fill:#000000;fill-opacity:1;" d="M 47.164062 1.050781 C 50.820312 1.050781 53.769531 3.996094 53.769531 7.613281 C 53.769531 11.261719 50.820312 14.207031 47.164062 14.207031 C 43.546875 14.207031 40.597656 11.261719 40.597656 7.613281 C 40.597656 3.996094 43.546875 1.050781 47.164062 1.050781 Z M 47.164062 15.015625 C 52.855469 15.015625 57.460938 20.804688 57.460938 27.929688 C 57.460938 27.964844 57.460938 28 57.460938 28.035156 C 50.609375 28.035156 43.757812 28.035156 36.871094 28.035156 C 36.871094 28 36.871094 27.964844 36.871094 27.929688 C 36.871094 20.804688 41.507812 15.015625 47.164062 15.015625 Z M 47.164062 15.015625 "/></g><g clip-rule="nonzero" clip-path="url(#8967b432c3)"><path style=" stroke:none;fill-rule:evenodd;fill:#000000;fill-opacity:1;" d="M 29.359375 1.050781 C 33.015625 1.050781 35.964844 3.996094 35.964844 7.613281 C 35.964844 11.261719 33.015625 14.207031 29.359375 14.207031 C 25.742188 14.207031 22.789062 11.261719 22.789062 7.613281 C 22.789062 3.996094 25.742188 1.050781 29.359375 1.050781 Z M 29.359375 15.015625 C 35.050781 15.015625 39.652344 20.804688 39.652344 27.929688 C 39.652344 27.964844 39.652344 28 39.652344 28.035156 C 32.804688 28.035156 25.953125 28.035156 19.066406 28.035156 C 19.066406 28 19.066406 27.964844 19.066406 27.929688 C 19.066406 20.804688 23.703125 15.015625 29.359375 15.015625 Z M 29.359375 15.015625 "/></g><g clip-rule="nonzero" clip-path="url(#8f34c02631)"><path style=" stroke:none;fill-rule:evenodd;fill:#000000;fill-opacity:1;" d="M 10.890625 1.050781 C 14.546875 1.050781 17.496094 3.996094 17.496094 7.613281 C 17.496094 11.261719 14.546875 14.207031 10.890625 14.207031 C 7.273438 14.207031 4.320312 11.261719 4.320312 7.613281 C 4.320312 3.996094 7.273438 1.050781 10.890625 1.050781 Z M 10.890625 15.015625 C 16.582031 15.015625 21.183594 20.804688 21.183594 27.929688 C 21.183594 27.964844 21.183594 28 21.183594 28.035156 C 14.335938 28.035156 7.484375 28.035156 0.597656 28.035156 C 0.597656 28 0.597656 27.964844 0.597656 27.929688 C 0.597656 20.804688 5.234375 15.015625 10.890625 15.015625 Z M 10.890625 15.015625 "/></g></g></g></g></svg>