<svg xmlns="http://www.w3.org/2000/svg" xmlns:xlink="http://www.w3.org/1999/xlink" width="200" zoomAndPan="magnify" viewBox="0 0 150 44.999999" height="60" preserveAspectRatio="xMidYMid meet" version="1.2"><defs><clipPath id="81ad1d867a"><path d="M 83.355469 1.121094 L 115.453125 1.121094 L 115.453125 43.914062 L 83.355469 43.914062 Z M 83.355469 1.121094 "/></clipPath><clipPath id="d93dfa3570"><path d="M 55.75 1.121094 L 87.847656 1.121094 L 87.847656 43.914062 L 55.75 43.914062 Z M 55.75 1.121094 "/></clipPath><clipPath id="28dcd7bf27"><path d="M 26.132812 1.121094 L 58.230469 1.121094 L 58.230469 43.914062 L 26.132812 43.914062 Z M 26.132812 1.121094 "/></clipPath><clipPath id="c7c7899f01"><path d="M 0.675781 1.121094 L 32.769531 1.121094 L 32.769531 43.914062 L 0.675781 43.914062 Z M 0.675781 1.121094 "/></clipPath><clipPath id="68b7da48a2"><path d="M 110.722656 1.121094 L 142.816406 1.121094 L 142.816406 43.914062 L 110.722656 43.914062 Z M 110.722656 1.121094 "/></clipPath><clipPath id="55d16445da"><rect x="0" width="145" y="0" height="44"/></clipPath></defs><g id="86a1bbd99c"><g transform="matrix(1,0,0,1,3,0)"><g clip-path="url(#55d16445da)"><g clip-rule="nonzero" clip-path="url(#81ad1d867a)"><path style=" stroke:none;fill-rule:evenodd;fill:#e50000;fill-opacity:1;" d="M 99.65625 1.121094 C 105.4375 1.121094 110.105469 5.789062 110.105469 11.515625 C 110.105469 17.292969 105.4375 21.960938 99.65625 21.960938 C 93.929688 21.960938 89.261719 17.292969 89.261719 11.515625 C 89.261719 5.789062 93.929688 1.121094 99.65625 1.121094 Z M 99.65625 23.242188 C 108.660156 23.242188 115.941406 32.410156 115.941406 43.691406 C 115.941406 43.75 115.941406 43.804688 115.941406 43.859375 C 105.101562 43.859375 94.265625 43.859375 83.371094 43.859375 C 83.371094 43.804688 83.371094 43.75 83.371094 43.691406 C 83.371094 32.410156 90.707031 23.242188 99.65625 23.242188 Z M 99.65625 23.242188 "/></g><g clip-rule="nonzero" clip-path="url(#d93dfa3570)"><path style=" stroke:none;fill-rule:evenodd;fill:#050606;fill-opacity:1;" d="M 72.050781 1.121094 C 77.828125 1.121094 82.496094 5.789062 82.496094 11.515625 C 82.496094 17.292969 77.828125 21.960938 72.050781 21.960938 C 66.324219 21.960938 61.65625 17.292969 61.65625 11.515625 C 61.65625 5.789062 66.324219 1.121094 72.050781 1.121094 Z M 72.050781 23.242188 C 81.054688 23.242188 88.332031 32.410156 88.332031 43.691406 C 88.332031 43.75 88.332031 43.804688 88.332031 43.859375 C 77.496094 43.859375 66.660156 43.859375 55.765625 43.859375 C 55.765625 43.804688 55.765625 43.75 55.765625 43.691406 C 55.765625 32.410156 63.101562 23.242188 72.050781 23.242188 Z M 72.050781 23.242188 "/></g><g clip-rule="nonzero" clip-path="url(#28dcd7bf27)"><path style=" stroke:none;fill-rule:evenodd;fill:#e50000;fill-opacity:1;" d="M 42.433594 1.121094 C 48.210938 1.121094 52.882812 5.789062 52.882812 11.515625 C 52.882812 17.292969 48.210938 21.960938 42.433594 21.960938 C 36.707031 21.960938 32.039062 17.292969 32.039062 11.515625 C 32.039062 5.789062 36.707031 1.121094 42.433594 1.121094 Z M 42.433594 23.242188 C 51.4375 23.242188 58.71875 32.410156 58.71875 43.691406 C 58.71875 43.75 58.71875 43.804688 58.71875 43.859375 C 47.878906 43.859375 37.042969 43.859375 26.148438 43.859375 C 26.148438 43.804688 26.148438 43.75 26.148438 43.691406 C 26.148438 32.410156 33.484375 23.242188 42.433594 23.242188 Z M 42.433594 23.242188 "/></g><g clip-rule="nonzero" clip-path="url(#c7c7899f01)"><path style=" stroke:none;fill-rule:evenodd;fill:#000000;fill-opacity:1;" d="M 16.722656 1.121094 C 22.414062 1.121094 27.011719 5.796875 27.011719 11.527344 C 27.011719 17.316406 22.414062 21.988281 16.722656 21.988281 C 11.085938 21.988281 6.492188 17.316406 6.492188 11.527344 C 6.492188 5.796875 11.085938 1.121094 16.722656 1.121094 Z M 16.722656 23.269531 C 25.589844 23.269531 32.757812 32.453125 32.757812 43.75 C 32.757812 43.804688 32.757812 43.859375 32.757812 43.914062 C 22.085938 43.914062 11.414062 43.914062 0.691406 43.914062 C 0.691406 43.859375 0.691406 43.804688 0.691406 43.75 C 0.691406 32.453125 7.914062 23.269531 16.722656 23.269531 Z M 16.722656 23.269531 "/></g><g clip-rule="nonzero" clip-path="url(#68b7da48a2)"><path style=" stroke:none;fill-rule:evenodd;fill:#000000;fill-opacity:1;" d="M 126.769531 1.121094 C 132.460938 1.121094 137.058594 5.796875 137.058594 11.527344 C 137.058594 17.316406 132.460938 21.988281 126.769531 21.988281 C 121.132812 21.988281 116.535156 17.316406 116.535156 11.527344 C 116.535156 5.796875 121.132812 1.121094 126.769531 1.121094 Z M 126.769531 23.269531 C 135.632812 23.269531 142.804688 32.453125 142.804688 43.75 C 142.804688 43.804688 142.804688 43.859375 142.804688 43.914062 C 132.132812 43.914062 121.460938 43.914062 110.734375 43.914062 C 110.734375 43.859375 110.734375 43.804688 110.734375 43.75 C 110.734375 32.453125 117.960938 23.269531 126.769531 23.269531 Z M 126.769531 23.269531 "/></g></g></g></g></svg>