<svg xmlns="http://www.w3.org/2000/svg" xmlns:xlink="http://www.w3.org/1999/xlink" width="80" zoomAndPan="magnify" viewBox="0 0 60 30.000001" height="40" preserveAspectRatio="xMidYMid meet" version="1.2"><defs><clipPath id="320af4b5cd"><path d="M 3 2 L 59.03125 2 L 59.03125 29 L 3 29 Z M 3 2 "/></clipPath><clipPath id="99f9b7ec28"><path d="M 34.320312 0.0976562 L 52.773438 0.0976562 L 52.773438 25.933594 L 34.320312 25.933594 Z M 34.320312 0.0976562 "/></clipPath><clipPath id="54ca113f83"><path d="M 17.902344 0.0976562 L 36.355469 0.0976562 L 36.355469 25 L 17.902344 25 Z M 17.902344 0.0976562 "/></clipPath><clipPath id="7b54bef93e"><path d="M 0.871094 0.0976562 L 19.324219 0.0976562 L 19.324219 25.933594 L 0.871094 25.933594 Z M 0.871094 0.0976562 "/></clipPath><clipPath id="5f669f8afd"><rect x="0" width="57" y="0" height="27"/></clipPath></defs><g id="2cde0926c9"><g clip-rule="nonzero" clip-path="url(#320af4b5cd)"><g transform="matrix(1,0,0,1,3,2)"><g clip-path="url(#5f669f8afd)"><g clip-rule="nonzero" clip-path="url(#99f9b7ec28)"><path style=" stroke:none;fill-rule:evenodd;fill:#000000;fill-opacity:1;" d="M 43.546875 0.0976562 C 46.820312 0.0976562 49.460938 2.921875 49.460938 6.382812 C 49.460938 9.875 46.820312 12.699219 43.546875 12.699219 C 40.304688 12.699219 37.664062 9.875 37.664062 6.382812 C 37.664062 2.921875 40.304688 0.0976562 43.546875 0.0976562 Z M 43.546875 13.46875 C 48.644531 13.46875 52.765625 19.015625 52.765625 25.835938 C 52.765625 25.867188 52.765625 25.902344 52.765625 25.933594 C 46.628906 25.933594 40.496094 25.933594 34.328125 25.933594 C 34.328125 25.902344 34.328125 25.867188 34.328125 25.835938 C 34.328125 19.015625 38.480469 13.46875 43.546875 13.46875 Z M 43.546875 13.46875 "/></g><g clip-rule="nonzero" clip-path="url(#54ca113f83)"><path style=" stroke:none;fill-rule:evenodd;fill:#e50000;fill-opacity:1;" d="M 27.359375 0.0976562 C 30.710938 0.0976562 33.421875 2.808594 33.421875 6.128906 C 33.421875 9.484375 30.710938 12.191406 27.359375 12.191406 C 24.035156 12.191406 21.328125 9.484375 21.328125 6.128906 C 21.328125 2.808594 24.035156 0.0976562 27.359375 0.0976562 Z M 27.359375 12.933594 C 32.582031 12.933594 36.808594 18.253906 36.808594 24.800781 C 36.808594 24.832031 36.808594 24.863281 36.808594 24.898438 C 30.519531 24.898438 24.230469 24.898438 17.910156 24.898438 C 17.910156 24.863281 17.910156 24.832031 17.910156 24.800781 C 17.910156 18.253906 22.167969 12.933594 27.359375 12.933594 Z M 27.359375 12.933594 "/></g><g clip-rule="nonzero" clip-path="url(#7b54bef93e)"><path style=" stroke:none;fill-rule:evenodd;fill:#000000;fill-opacity:1;" d="M 10.097656 0.0976562 C 13.371094 0.0976562 16.011719 2.921875 16.011719 6.382812 C 16.011719 9.875 13.371094 12.699219 10.097656 12.699219 C 6.859375 12.699219 4.214844 9.875 4.214844 6.382812 C 4.214844 2.921875 6.859375 0.0976562 10.097656 0.0976562 Z M 10.097656 13.46875 C 15.195312 13.46875 19.316406 19.015625 19.316406 25.835938 C 19.316406 25.867188 19.316406 25.902344 19.316406 25.933594 C 13.179688 25.933594 7.046875 25.933594 0.878906 25.933594 C 0.878906 25.902344 0.878906 25.867188 0.878906 25.835938 C 0.878906 19.015625 5.03125 13.46875 10.097656 13.46875 Z M 10.097656 13.46875 "/></g></g></g></g></g></svg>