<svg xmlns="http://www.w3.org/2000/svg" xmlns:xlink="http://www.w3.org/1999/xlink" width="60" zoomAndPan="magnify" viewBox="0 0 45 44.999999" height="60" preserveAspectRatio="xMidYMid meet" version="1.0"><defs><clipPath id="867144f88c"><path d="M 1.964844 0 L 43.214844 0 L 43.214844 45 L 1.964844 45 Z M 1.964844 0 " clip-rule="nonzero"/></clipPath></defs><g clip-path="url(#867144f88c)"><path fill="#000000" d="M 41.25 7.835938 L 32.410156 7.835938 L 32.410156 6.457031 C 32.410156 6.035156 32.367188 5.613281 32.285156 5.199219 C 32.199219 4.785156 32.078125 4.382812 31.914062 3.992188 C 31.75 3.601562 31.550781 3.230469 31.316406 2.878906 C 31.082031 2.527344 30.8125 2.203125 30.511719 1.902344 C 30.210938 1.605469 29.882812 1.335938 29.53125 1.101562 C 29.179688 0.867188 28.804688 0.667969 28.414062 0.507812 C 28.019531 0.34375 27.617188 0.222656 27.199219 0.140625 C 26.785156 0.0546875 26.363281 0.015625 25.9375 0.0117188 L 19.238281 0.0117188 C 18.816406 0.015625 18.394531 0.0546875 17.976562 0.140625 C 17.5625 0.222656 17.15625 0.34375 16.765625 0.507812 C 16.371094 0.667969 16 0.867188 15.644531 1.101562 C 15.292969 1.335938 14.964844 1.605469 14.664062 1.902344 C 14.367188 2.203125 14.097656 2.527344 13.859375 2.878906 C 13.625 3.230469 13.425781 3.601562 13.261719 3.992188 C 13.101562 4.382812 12.976562 4.785156 12.894531 5.199219 C 12.808594 5.613281 12.769531 6.035156 12.765625 6.457031 L 12.765625 7.835938 L 3.929688 7.835938 C 3.667969 7.835938 3.417969 7.882812 3.175781 7.984375 C 2.9375 8.082031 2.722656 8.222656 2.539062 8.40625 C 2.355469 8.589844 2.210938 8.800781 2.113281 9.042969 C 2.011719 9.28125 1.964844 9.53125 1.964844 9.789062 C 1.964844 10.050781 2.011719 10.300781 2.113281 10.539062 C 2.210938 10.777344 2.355469 10.988281 2.539062 11.171875 C 2.722656 11.355469 2.9375 11.496094 3.175781 11.597656 C 3.417969 11.695312 3.667969 11.746094 3.929688 11.746094 L 6.875 11.746094 L 6.875 38.515625 C 6.875 38.941406 6.917969 39.359375 7 39.777344 C 7.085938 40.195312 7.207031 40.597656 7.371094 40.992188 C 7.535156 41.382812 7.738281 41.757812 7.976562 42.109375 C 8.210938 42.464844 8.484375 42.792969 8.785156 43.089844 C 9.085938 43.390625 9.417969 43.660156 9.769531 43.894531 C 10.125 44.132812 10.5 44.332031 10.894531 44.492188 C 11.292969 44.65625 11.699219 44.78125 12.117188 44.863281 C 12.535156 44.945312 12.957031 44.988281 13.386719 44.988281 L 31.800781 44.988281 C 32.226562 44.984375 32.652344 44.945312 33.070312 44.859375 C 33.488281 44.777344 33.894531 44.652344 34.289062 44.492188 C 34.683594 44.328125 35.054688 44.128906 35.410156 43.894531 C 35.765625 43.65625 36.09375 43.386719 36.394531 43.089844 C 36.699219 42.789062 36.96875 42.460938 37.203125 42.109375 C 37.441406 41.753906 37.640625 41.382812 37.804688 40.988281 C 37.96875 40.597656 38.09375 40.191406 38.175781 39.777344 C 38.261719 39.359375 38.300781 38.9375 38.304688 38.515625 L 38.304688 11.746094 L 41.25 11.746094 C 41.511719 11.746094 41.761719 11.695312 42 11.597656 C 42.242188 11.496094 42.453125 11.355469 42.636719 11.171875 C 42.824219 10.988281 42.964844 10.777344 43.0625 10.539062 C 43.164062 10.300781 43.214844 10.050781 43.214844 9.789062 C 43.214844 9.53125 43.164062 9.28125 43.0625 9.042969 C 42.964844 8.800781 42.824219 8.589844 42.636719 8.40625 C 42.453125 8.222656 42.242188 8.082031 42 7.984375 C 41.761719 7.882812 41.511719 7.835938 41.25 7.835938 Z M 16.695312 6.457031 C 16.695312 6.121094 16.761719 5.796875 16.890625 5.488281 C 17.019531 5.175781 17.203125 4.902344 17.441406 4.664062 C 17.679688 4.429688 17.953125 4.246094 18.265625 4.117188 C 18.578125 3.988281 18.902344 3.925781 19.238281 3.925781 L 25.9375 3.925781 C 26.273438 3.925781 26.597656 3.988281 26.910156 4.117188 C 27.222656 4.246094 27.496094 4.429688 27.738281 4.664062 C 27.976562 4.902344 28.160156 5.175781 28.289062 5.488281 C 28.417969 5.796875 28.480469 6.121094 28.480469 6.457031 L 28.480469 7.835938 L 16.695312 7.835938 Z M 34.375 38.515625 C 34.375 38.855469 34.308594 39.179688 34.175781 39.492188 C 34.042969 39.804688 33.859375 40.082031 33.617188 40.324219 C 33.375 40.5625 33.097656 40.746094 32.785156 40.878906 C 32.46875 41.007812 32.140625 41.074219 31.800781 41.074219 L 13.386719 41.074219 C 13.042969 41.074219 12.714844 41.011719 12.398438 40.882812 C 12.082031 40.75 11.804688 40.566406 11.5625 40.328125 C 11.320312 40.085938 11.132812 39.808594 11.003906 39.496094 C 10.871094 39.179688 10.804688 38.855469 10.804688 38.515625 L 10.804688 11.746094 L 34.375 11.746094 Z M 34.375 38.515625 " fill-opacity="1" fill-rule="nonzero"/></g><path fill="#000000" d="M 17.679688 16.136719 C 17.417969 16.136719 17.167969 16.183594 16.925781 16.285156 C 16.6875 16.382812 16.472656 16.523438 16.289062 16.707031 C 16.105469 16.890625 15.960938 17.101562 15.863281 17.34375 C 15.761719 17.582031 15.714844 17.832031 15.714844 18.089844 L 15.714844 35.6875 C 15.714844 35.949219 15.761719 36.199219 15.863281 36.4375 C 15.960938 36.675781 16.105469 36.886719 16.289062 37.070312 C 16.472656 37.253906 16.6875 37.394531 16.925781 37.496094 C 17.167969 37.59375 17.417969 37.644531 17.679688 37.644531 C 17.9375 37.644531 18.1875 37.59375 18.429688 37.496094 C 18.671875 37.394531 18.882812 37.253906 19.066406 37.070312 C 19.25 36.886719 19.394531 36.675781 19.492188 36.4375 C 19.59375 36.199219 19.640625 35.949219 19.640625 35.6875 L 19.640625 18.089844 C 19.640625 17.832031 19.59375 17.582031 19.492188 17.34375 C 19.394531 17.101562 19.25 16.890625 19.066406 16.707031 C 18.882812 16.523438 18.671875 16.382812 18.429688 16.285156 C 18.1875 16.183594 17.9375 16.136719 17.679688 16.136719 Z M 17.679688 16.136719 " fill-opacity="1" fill-rule="nonzero"/><path fill="#000000" d="M 27.5 16.136719 C 27.238281 16.136719 26.988281 16.183594 26.746094 16.285156 C 26.507812 16.382812 26.292969 16.523438 26.109375 16.707031 C 25.925781 16.890625 25.785156 17.101562 25.683594 17.34375 C 25.585938 17.582031 25.535156 17.832031 25.535156 18.089844 L 25.535156 35.6875 C 25.535156 35.949219 25.585938 36.199219 25.683594 36.4375 C 25.785156 36.675781 25.925781 36.886719 26.109375 37.070312 C 26.292969 37.253906 26.507812 37.394531 26.746094 37.496094 C 26.988281 37.59375 27.238281 37.644531 27.5 37.644531 C 27.761719 37.644531 28.011719 37.59375 28.25 37.496094 C 28.492188 37.394531 28.703125 37.253906 28.886719 37.070312 C 29.074219 36.886719 29.214844 36.675781 29.3125 36.4375 C 29.414062 36.199219 29.464844 35.949219 29.464844 35.6875 L 29.464844 18.089844 C 29.464844 17.832031 29.414062 17.582031 29.3125 17.34375 C 29.214844 17.101562 29.074219 16.890625 28.886719 16.707031 C 28.703125 16.523438 28.492188 16.382812 28.25 16.285156 C 28.011719 16.183594 27.761719 16.136719 27.5 16.136719 Z M 27.5 16.136719 " fill-opacity="1" fill-rule="nonzero"/></svg>