<svg xmlns="http://www.w3.org/2000/svg" xmlns:xlink="http://www.w3.org/1999/xlink" width="200" zoomAndPan="magnify" viewBox="0 0 150 44.999999" height="60" preserveAspectRatio="xMidYMid meet" version="1.2"><defs><clipPath id="0904b79017"><path d="M 113.148438 0 L 147.648438 0 L 147.648438 45 L 113.148438 45 Z M 113.148438 0 "/></clipPath><clipPath id="e65a98e601"><path d="M 86.75 0 L 121.25 0 L 121.25 45 L 86.75 45 Z M 86.75 0 "/></clipPath><clipPath id="611857218a"><path d="M 60.355469 0 L 94.855469 0 L 94.855469 45 L 60.355469 45 Z M 60.355469 0 "/></clipPath><clipPath id="2c2b559988"><path d="M 31.449219 0 L 65.949219 0 L 65.949219 45 L 31.449219 45 Z M 31.449219 0 "/></clipPath><clipPath id="c70da4e331"><path d="M 2.539062 0 L 37.039062 0 L 37.039062 45 L 2.539062 45 Z M 2.539062 0 "/></clipPath></defs><g id="0d57c044e8"><g clip-rule="nonzero" clip-path="url(#0904b79017)"><path style=" stroke:none;fill-rule:evenodd;fill:#000000;fill-opacity:1;" d="M 130.398438 0 C 136.515625 0 141.457031 4.914062 141.457031 10.941406 C 141.457031 17.027344 136.515625 21.945312 130.398438 21.945312 C 124.335938 21.945312 119.394531 17.027344 119.394531 10.941406 C 119.394531 4.914062 124.335938 0 130.398438 0 Z M 130.398438 23.289062 C 139.929688 23.289062 147.636719 32.945312 147.636719 44.824219 C 147.636719 44.882812 147.636719 44.941406 147.636719 45 C 136.164062 45 124.691406 45 113.15625 45 C 113.15625 44.941406 113.15625 44.882812 113.15625 44.824219 C 113.15625 32.945312 120.925781 23.289062 130.398438 23.289062 Z M 130.398438 23.289062 "/></g><g clip-rule="nonzero" clip-path="url(#e65a98e601)"><path style=" stroke:none;fill-rule:evenodd;fill:#00bf63;fill-opacity:1;" d="M 103.90625 0 C 109.992188 0 114.910156 4.914062 114.910156 10.941406 C 114.910156 17.027344 109.992188 21.945312 103.90625 21.945312 C 97.878906 21.945312 92.964844 17.027344 92.964844 10.941406 C 92.964844 4.914062 97.878906 0 103.90625 0 Z M 103.90625 23.289062 C 113.386719 23.289062 121.054688 32.945312 121.054688 44.824219 C 121.054688 44.882812 121.054688 44.941406 121.054688 45 C 109.640625 45 98.230469 45 86.761719 45 C 86.761719 44.941406 86.761719 44.882812 86.761719 44.824219 C 86.761719 32.945312 94.484375 23.289062 103.90625 23.289062 Z M 103.90625 23.289062 "/></g><g clip-rule="nonzero" clip-path="url(#611857218a)"><path style=" stroke:none;fill-rule:evenodd;fill:#000000;fill-opacity:1;" d="M 77.605469 0 C 83.722656 0 88.667969 4.914062 88.667969 10.941406 C 88.667969 17.027344 83.722656 21.945312 77.605469 21.945312 C 71.542969 21.945312 66.601562 17.027344 66.601562 10.941406 C 66.601562 4.914062 71.542969 0 77.605469 0 Z M 77.605469 23.289062 C 87.136719 23.289062 94.84375 32.945312 94.84375 44.824219 C 94.84375 44.882812 94.84375 44.941406 94.84375 45 C 83.371094 45 71.898438 45 60.367188 45 C 60.367188 44.941406 60.367188 44.882812 60.367188 44.824219 C 60.367188 32.945312 68.132812 23.289062 77.605469 23.289062 Z M 77.605469 23.289062 "/></g><g clip-rule="nonzero" clip-path="url(#2c2b559988)"><path style=" stroke:none;fill-rule:evenodd;fill:#00bf63;fill-opacity:1;" d="M 48.605469 0 C 54.691406 0 59.605469 4.914062 59.605469 10.941406 C 59.605469 17.027344 54.691406 21.945312 48.605469 21.945312 C 42.578125 21.945312 37.660156 17.027344 37.660156 10.941406 C 37.660156 4.914062 42.578125 0 48.605469 0 Z M 48.605469 23.289062 C 58.082031 23.289062 65.75 32.945312 65.75 44.824219 C 65.75 44.882812 65.75 44.941406 65.75 45 C 54.339844 45 42.929688 45 31.457031 45 C 31.457031 44.941406 31.457031 44.882812 31.457031 44.824219 C 31.457031 32.945312 39.183594 23.289062 48.605469 23.289062 Z M 48.605469 23.289062 "/></g><g clip-rule="nonzero" clip-path="url(#c70da4e331)"><path style=" stroke:none;fill-rule:evenodd;fill:#000000;fill-opacity:1;" d="M 19.789062 0 C 25.910156 0 30.851562 4.914062 30.851562 10.941406 C 30.851562 17.027344 25.910156 21.945312 19.789062 21.945312 C 13.730469 21.945312 8.789062 17.027344 8.789062 10.941406 C 8.789062 4.914062 13.730469 0 19.789062 0 Z M 19.789062 23.289062 C 29.320312 23.289062 37.03125 32.945312 37.03125 44.824219 C 37.03125 44.882812 37.03125 44.941406 37.03125 45 C 25.554688 45 14.082031 45 2.550781 45 C 2.550781 44.941406 2.550781 44.882812 2.550781 44.824219 C 2.550781 32.945312 10.316406 23.289062 19.789062 23.289062 Z M 19.789062 23.289062 "/></g></g></svg>