<svg xmlns="http://www.w3.org/2000/svg" xmlns:xlink="http://www.w3.org/1999/xlink" width="60" zoomAndPan="magnify" viewBox="0 0 45 44.999999" height="60" preserveAspectRatio="xMidYMid meet" version="1.0"><defs><clipPath id="3b6a654171"><path d="M 0.789062 0 L 44.289062 0 L 44.289062 45 L 0.789062 45 Z M 0.789062 0 " clip-rule="nonzero"/></clipPath></defs><g clip-path="url(#3b6a654171)"><path fill="#000000" d="M 44.242188 40.664062 C 44 37.464844 41.796875 34.820312 38.871094 33.875 C 40.160156 33.082031 41.023438 31.65625 41.023438 30.035156 C 41.023438 27.546875 38.996094 25.527344 36.503906 25.527344 C 34.011719 25.527344 31.984375 27.550781 31.984375 30.035156 C 31.984375 31.65625 32.84375 33.078125 34.132812 33.875 C 32.234375 34.484375 30.617188 35.820312 29.660156 37.605469 C 28.425781 36.300781 26.839844 35.332031 25.0625 34.851562 C 26.894531 33.925781 28.152344 32.03125 28.152344 29.847656 C 28.152344 26.753906 25.632812 24.238281 22.535156 24.238281 C 19.433594 24.238281 16.914062 26.753906 16.914062 29.847656 C 16.914062 32.03125 18.171875 33.925781 20.003906 34.851562 C 18.226562 35.332031 16.640625 36.300781 15.40625 37.605469 C 14.449219 35.820312 12.832031 34.484375 10.933594 33.875 C 12.222656 33.078125 13.082031 31.65625 13.082031 30.035156 C 13.082031 27.546875 11.054688 25.527344 8.5625 25.527344 C 6.070312 25.527344 4.046875 27.550781 4.046875 30.035156 C 4.046875 31.65625 4.90625 33.082031 6.199219 33.875 C 3.269531 34.820312 1.066406 37.464844 0.824219 40.664062 C 0.800781 40.996094 0.917969 41.328125 1.140625 41.570312 C 1.367188 41.8125 1.6875 41.953125 2.023438 41.953125 L 13.023438 41.953125 C 12.894531 42.472656 12.804688 43.011719 12.765625 43.5625 C 12.738281 43.933594 12.867188 44.300781 13.117188 44.574219 C 13.371094 44.84375 13.730469 45 14.101562 45 L 30.964844 45 C 31.335938 45 31.695312 44.84375 31.949219 44.574219 C 32.199219 44.300781 32.328125 43.933594 32.300781 43.5625 C 32.261719 43.011719 32.171875 42.472656 32.042969 41.953125 L 43.042969 41.953125 C 43.378906 41.953125 43.699219 41.8125 43.925781 41.570312 C 44.152344 41.328125 44.265625 40.996094 44.242188 40.664062 Z M 36.503906 26.9375 C 38.214844 26.9375 39.605469 28.328125 39.605469 30.035156 C 39.605469 31.742188 38.214844 33.132812 36.503906 33.132812 C 34.792969 33.132812 33.398438 31.746094 33.398438 30.035156 C 33.398438 28.328125 34.792969 26.9375 36.503906 26.9375 Z M 18.328125 29.847656 C 18.328125 27.53125 20.214844 25.648438 22.53125 25.648438 C 24.851562 25.648438 26.738281 27.53125 26.738281 29.847656 C 26.738281 32.160156 24.851562 34.042969 22.53125 34.042969 C 20.214844 34.042969 18.328125 32.160156 18.328125 29.847656 Z M 8.5625 26.9375 C 10.273438 26.9375 11.667969 28.328125 11.667969 30.035156 C 11.667969 31.742188 10.273438 33.132812 8.5625 33.132812 C 6.851562 33.132812 5.460938 31.746094 5.460938 30.035156 C 5.460938 28.328125 6.851562 26.9375 8.5625 26.9375 Z M 2.257812 40.539062 C 2.613281 37.367188 5.339844 34.914062 8.5625 34.914062 C 11.132812 34.914062 13.441406 36.472656 14.421875 38.828125 C 14.058594 39.363281 13.746094 39.9375 13.492188 40.539062 Z M 14.179688 43.589844 C 14.546875 39.285156 18.199219 35.929688 22.53125 35.929688 C 26.867188 35.929688 30.519531 39.285156 30.882812 43.589844 Z M 31.574219 40.539062 C 31.320312 39.9375 31.007812 39.363281 30.640625 38.828125 C 31.625 36.472656 33.933594 34.914062 36.503906 34.914062 C 39.726562 34.914062 42.453125 37.367188 42.808594 40.539062 Z M 21.824219 4.625 L 21.824219 0.707031 C 21.824219 0.316406 22.140625 0 22.53125 0 C 22.921875 0 23.242188 0.316406 23.242188 0.707031 L 23.242188 4.625 C 23.242188 5.015625 22.921875 5.332031 22.53125 5.332031 C 22.140625 5.332031 21.824219 5.015625 21.824219 4.625 Z M 12.359375 5.203125 C 12.082031 4.929688 12.082031 4.480469 12.359375 4.207031 C 12.636719 3.929688 13.082031 3.929688 13.359375 4.207031 L 16.136719 6.976562 C 16.414062 7.253906 16.414062 7.699219 16.136719 7.976562 C 15.996094 8.113281 15.816406 8.183594 15.636719 8.183594 C 15.453125 8.183594 15.273438 8.113281 15.136719 7.976562 Z M 8.144531 14.359375 C 8.144531 13.96875 8.460938 13.65625 8.851562 13.65625 L 12.777344 13.65625 C 13.167969 13.65625 13.484375 13.96875 13.484375 14.359375 C 13.484375 14.75 13.167969 15.066406 12.777344 15.066406 L 8.851562 15.066406 C 8.460938 15.066406 8.144531 14.75 8.144531 14.359375 Z M 28.929688 7.976562 C 28.652344 7.699219 28.652344 7.253906 28.929688 6.976562 L 31.707031 4.207031 C 31.984375 3.929688 32.429688 3.929688 32.707031 4.207031 C 32.984375 4.480469 32.984375 4.929688 32.707031 5.203125 L 29.929688 7.976562 C 29.792969 8.113281 29.609375 8.183594 29.429688 8.183594 C 29.25 8.183594 29.066406 8.113281 28.929688 7.976562 Z M 32.285156 13.65625 L 36.214844 13.65625 C 36.605469 13.65625 36.921875 13.96875 36.921875 14.359375 C 36.921875 14.75 36.605469 15.066406 36.214844 15.066406 L 32.285156 15.066406 C 31.898438 15.066406 31.578125 14.75 31.578125 14.359375 C 31.578125 13.96875 31.898438 13.65625 32.285156 13.65625 Z M 15.21875 11.988281 C 15.132812 12.257812 15.214844 12.554688 15.429688 12.742188 L 18.738281 15.589844 L 17.742188 19.835938 C 17.675781 20.113281 17.78125 20.402344 18.011719 20.570312 C 18.242188 20.738281 18.550781 20.75 18.796875 20.601562 L 22.53125 18.34375 L 26.269531 20.601562 C 26.382812 20.671875 26.511719 20.703125 26.636719 20.703125 C 26.785156 20.703125 26.929688 20.660156 27.054688 20.570312 C 27.28125 20.402344 27.390625 20.113281 27.324219 19.835938 L 26.328125 15.589844 L 29.636719 12.742188 C 29.851562 12.554688 29.933594 12.257812 29.847656 11.988281 C 29.757812 11.71875 29.515625 11.527344 29.234375 11.503906 L 24.878906 11.136719 L 23.183594 7.117188 C 23.074219 6.855469 22.816406 6.683594 22.53125 6.683594 C 22.25 6.683594 21.992188 6.855469 21.882812 7.117188 L 20.1875 11.136719 L 15.832031 11.503906 C 15.550781 11.527344 15.308594 11.71875 15.21875 11.988281 Z M 20.734375 12.507812 C 20.996094 12.488281 21.222656 12.320312 21.324219 12.078125 L 22.53125 9.210938 L 23.742188 12.078125 C 23.84375 12.320312 24.070312 12.488281 24.332031 12.507812 L 27.4375 12.769531 L 25.078125 14.800781 C 24.878906 14.972656 24.792969 15.242188 24.851562 15.496094 L 25.566406 18.523438 L 22.898438 16.914062 C 22.785156 16.847656 22.660156 16.8125 22.53125 16.8125 C 22.40625 16.8125 22.277344 16.847656 22.167969 16.914062 L 19.5 18.523438 L 20.214844 15.496094 C 20.273438 15.242188 20.1875 14.972656 19.988281 14.800781 L 17.628906 12.769531 Z M 20.734375 12.507812 " fill-opacity="1" fill-rule="nonzero"/></g></svg>