<svg xmlns="http://www.w3.org/2000/svg" xmlns:xlink="http://www.w3.org/1999/xlink" width="40" zoomAndPan="magnify" viewBox="0 0 30 30.000001" height="40" preserveAspectRatio="xMidYMid meet" version="1.0"><defs><clipPath id="ea7da9ce59"><path d="M 4.402344 0 L 26.902344 0 L 26.902344 29.03125 L 4.402344 29.03125 Z M 4.402344 0 " clip-rule="nonzero"/></clipPath><clipPath id="7a78619a8a"><path d="M 4.402344 0 L 25 0 L 25 21 L 4.402344 21 Z M 4.402344 0 " clip-rule="nonzero"/></clipPath></defs><g clip-path="url(#ea7da9ce59)"><path fill="#231815" d="M 26.039062 6.84375 C 25.542969 4.441406 24.25 2.652344 22.203125 1.539062 C 20.386719 0.546875 18.367188 0.0429688 16.207031 0.0429688 L 15.945312 0.046875 C 13.3125 0.0742188 11.011719 0.519531 8.914062 1.40625 C 7.71875 1.917969 6.472656 2.496094 5.484375 3.527344 C 4.402344 4.648438 4.613281 5.714844 4.984375 6.417969 L 5.128906 6.71875 C 5.242188 6.953125 5.355469 7.183594 5.597656 7.558594 C 6.210938 8.523438 6.847656 9.515625 7.910156 10.265625 C 8.699219 10.816406 9.527344 10.847656 10.347656 10.363281 C 10.753906 10.128906 11.15625 9.882812 11.554688 9.632812 C 12.058594 9.316406 12.5625 8.996094 13.09375 8.710938 C 13.832031 8.320312 14.445312 8.175781 15.136719 8.261719 C 15.621094 8.316406 16.03125 8.566406 16.257812 8.949219 C 16.480469 9.320312 16.5 9.746094 16.316406 10.164062 C 16.050781 10.753906 15.511719 11.089844 14.707031 11.441406 C 14.445312 11.558594 14.183594 11.648438 13.917969 11.738281 C 13.492188 11.878906 13.070312 12.027344 12.671875 12.238281 C 11.152344 13.023438 10.234375 14.128906 9.859375 15.613281 C 9.585938 16.730469 9.53125 17.839844 9.472656 18.910156 L 9.445312 19.542969 C 9.417969 19.96875 9.433594 20.589844 9.875 21.054688 C 10.25 21.464844 10.761719 21.554688 11.175781 21.59375 C 10.078125 21.921875 9.3125 22.59375 8.84375 23.71875 C 8.058594 25.597656 8.648438 27.566406 10.246094 28.402344 C 11.046875 28.820312 11.894531 29.027344 12.765625 29.027344 C 13.578125 29.027344 14.40625 28.847656 15.226562 28.492188 C 16.8125 27.792969 17.597656 26.144531 17.285156 24.175781 C 17.082031 22.972656 16.359375 22.121094 15.183594 21.6875 C 15.148438 21.679688 15.121094 21.679688 15.089844 21.667969 C 15.28125 21.652344 15.46875 21.664062 15.660156 21.632812 C 16.355469 21.550781 17.042969 21.324219 17.351562 20.277344 C 17.492188 19.796875 17.570312 19.3125 17.636719 18.820312 C 17.675781 18.578125 17.710938 18.335938 17.757812 18.089844 C 17.835938 17.683594 18.003906 17.570312 18.171875 17.507812 C 18.71875 17.316406 19.265625 17.121094 19.824219 16.945312 C 21.050781 16.554688 22.605469 15.941406 23.753906 14.613281 C 25.839844 12.199219 26.609375 9.582031 26.039062 6.84375 Z M 26.039062 6.84375 " fill-opacity="1" fill-rule="nonzero"/></g><path fill="#ff4351" d="M 14.996094 0.414062 C 16.960938 0.375 18.808594 0.8125 20.515625 1.78125 C 22.339844 2.816406 23.351562 4.441406 23.753906 6.472656 C 24.289062 9.136719 23.445312 11.433594 21.765625 13.457031 C 20.894531 14.507812 19.683594 15.089844 18.40625 15.511719 C 17.867188 15.6875 17.339844 15.882812 16.8125 16.078125 C 16.269531 16.285156 16.003906 16.730469 15.902344 17.265625 C 15.773438 17.960938 15.734375 18.667969 15.535156 19.34375 C 15.378906 19.890625 15.164062 20.027344 14.609375 20.109375 C 13.289062 20.277344 11.976562 20.152344 10.667969 20.078125 C 9.84375 20.039062 9.589844 19.730469 9.632812 18.898438 C 9.707031 17.644531 9.71875 16.398438 10.011719 15.160156 C 10.328125 13.835938 11.121094 12.972656 12.273438 12.351562 C 12.871094 12.027344 13.535156 11.871094 14.152344 11.589844 C 14.960938 11.21875 15.714844 10.777344 16.085938 9.902344 C 16.667969 8.546875 15.800781 7.082031 14.316406 6.898438 C 13.441406 6.792969 12.652344 7.023438 11.894531 7.449219 C 10.984375 7.945312 10.152344 8.558594 9.265625 9.089844 C 8.761719 9.390625 8.335938 9.382812 7.851562 9.027344 C 6.921875 8.351562 6.359375 7.382812 5.773438 6.429688 C 5.597656 6.140625 5.472656 5.824219 5.316406 5.519531 C 4.949219 4.789062 5.140625 4.15625 5.667969 3.589844 C 6.496094 2.691406 7.558594 2.171875 8.652344 1.683594 C 10.671875 0.796875 12.796875 0.433594 14.996094 0.414062 Z M 14.996094 0.414062 " fill-opacity="1" fill-rule="evenodd"/><path fill="#ff4351" d="M 12.117188 21.429688 C 12.75 21.445312 13.375 21.503906 13.976562 21.734375 C 14.828125 22.050781 15.3125 22.675781 15.449219 23.546875 C 15.65625 24.878906 15.316406 26.328125 13.96875 26.945312 C 12.652344 27.539062 11.277344 27.589844 9.96875 26.875 C 8.816406 26.253906 8.4375 24.707031 9.011719 23.273438 C 9.53125 21.972656 10.4375 21.429688 12.117188 21.429688 Z M 12.117188 21.429688 " fill-opacity="1" fill-rule="evenodd"/><g clip-path="url(#7a78619a8a)"><path fill="#231815" d="M 13.160156 20.597656 C 12.503906 20.597656 11.847656 20.558594 11.210938 20.519531 L 10.644531 20.484375 C 10.316406 20.46875 9.839844 20.410156 9.53125 20.070312 C 9.222656 19.726562 9.207031 19.25 9.226562 18.875 C 9.238281 18.660156 9.25 18.445312 9.261719 18.234375 C 9.3125 17.199219 9.363281 16.128906 9.613281 15.066406 C 9.9375 13.71875 10.742188 12.714844 12.078125 11.992188 C 12.445312 11.792969 12.828125 11.65625 13.195312 11.527344 C 13.472656 11.425781 13.730469 11.335938 13.980469 11.21875 C 14.804688 10.84375 15.410156 10.449219 15.710938 9.742188 C 15.933594 9.222656 15.90625 8.65625 15.636719 8.183594 C 15.355469 7.695312 14.855469 7.375 14.269531 7.300781 C 13.5625 7.214844 12.859375 7.375 12.089844 7.804688 C 11.570312 8.089844 11.058594 8.421875 10.566406 8.746094 C 10.214844 8.976562 9.847656 9.214844 9.476562 9.441406 C 8.8125 9.835938 8.222656 9.804688 7.613281 9.355469 C 6.671875 8.671875 6.089844 7.726562 5.53125 6.808594 L 5.425781 6.644531 C 5.296875 6.433594 5.199219 6.21875 5.101562 6.007812 C 5.050781 5.90625 5.003906 5.804688 4.953125 5.703125 C 4.664062 5.128906 4.5 4.246094 5.371094 3.3125 C 6.246094 2.363281 7.34375 1.824219 8.484375 1.3125 C 10.4375 0.453125 12.566406 0.0273438 14.992188 0.0078125 C 15.070312 0.0078125 15.15625 0.00390625 15.238281 0.00390625 C 17.214844 0.00390625 19.058594 0.484375 20.71875 1.425781 C 22.550781 2.464844 23.707031 4.136719 24.152344 6.394531 C 24.667969 8.96875 23.972656 11.433594 22.078125 13.71875 C 21.058594 14.949219 19.648438 15.527344 18.535156 15.894531 C 17.996094 16.070312 17.460938 16.273438 16.957031 16.460938 C 16.597656 16.597656 16.390625 16.875 16.304688 17.339844 C 16.257812 17.589844 16.222656 17.835938 16.1875 18.085938 C 16.125 18.535156 16.058594 19 15.925781 19.460938 C 15.707031 20.21875 15.296875 20.421875 14.664062 20.511719 C 14.199219 20.570312 13.707031 20.597656 13.160156 20.597656 Z M 13.898438 6.464844 C 14.050781 6.464844 14.210938 6.476562 14.367188 6.496094 C 15.214844 6.597656 15.933594 7.066406 16.34375 7.78125 C 16.742188 8.476562 16.785156 9.308594 16.460938 10.0625 C 16.035156 11.066406 15.179688 11.566406 14.320312 11.957031 C 14.039062 12.089844 13.75 12.191406 13.46875 12.292969 C 13.113281 12.417969 12.777344 12.539062 12.464844 12.710938 C 11.328125 13.324219 10.675781 14.132812 10.40625 15.253906 C 10.175781 16.242188 10.125 17.230469 10.074219 18.273438 C 10.0625 18.488281 10.050781 18.703125 10.039062 18.921875 C 10.023438 19.230469 10.054688 19.433594 10.136719 19.523438 C 10.210938 19.609375 10.398438 19.65625 10.6875 19.671875 L 11.261719 19.707031 C 11.882812 19.746094 12.53125 19.785156 13.160156 19.785156 C 13.671875 19.785156 14.128906 19.757812 14.554688 19.703125 C 14.980469 19.644531 15.039062 19.597656 15.144531 19.234375 C 15.261719 18.828125 15.320312 18.414062 15.382812 17.972656 C 15.417969 17.710938 15.453125 17.449219 15.503906 17.191406 C 15.640625 16.453125 16.042969 15.933594 16.667969 15.699219 C 17.179688 15.507812 17.726562 15.304688 18.28125 15.125 C 19.78125 14.628906 20.761719 14.035156 21.453125 13.199219 C 23.203125 11.085938 23.828125 8.910156 23.355469 6.550781 C 22.949219 4.507812 21.957031 3.066406 20.316406 2.132812 C 18.710938 1.222656 16.921875 0.78125 15.003906 0.820312 C 12.683594 0.839844 10.664062 1.246094 8.816406 2.058594 C 7.753906 2.53125 6.738281 3.027344 5.96875 3.863281 C 5.503906 4.363281 5.417969 4.816406 5.679688 5.335938 C 5.734375 5.445312 5.785156 5.554688 5.835938 5.664062 C 5.929688 5.863281 6.015625 6.046875 6.121094 6.21875 L 6.222656 6.386719 C 6.769531 7.273438 7.28125 8.109375 8.089844 8.699219 C 8.441406 8.957031 8.683594 8.964844 9.058594 8.742188 C 9.414062 8.527344 9.773438 8.292969 10.121094 8.066406 C 10.625 7.734375 11.148438 7.390625 11.699219 7.089844 C 12.453125 6.671875 13.171875 6.464844 13.898438 6.464844 Z M 13.898438 6.464844 " fill-opacity="1" fill-rule="nonzero"/></g><path fill="#231815" d="M 11.980469 27.808594 C 11.214844 27.808594 10.472656 27.617188 9.773438 27.234375 C 8.449219 26.515625 7.96875 24.785156 8.632812 23.125 C 9.222656 21.652344 10.261719 21.023438 12.117188 21.023438 C 12.71875 21.039062 13.421875 21.089844 14.121094 21.351562 C 15.089844 21.714844 15.691406 22.453125 15.851562 23.484375 C 16.128906 25.265625 15.488281 26.695312 14.140625 27.316406 C 13.414062 27.644531 12.6875 27.808594 11.980469 27.808594 Z M 12.105469 21.839844 C 10.609375 21.839844 9.84375 22.285156 9.390625 23.425781 C 8.890625 24.679688 9.222656 26.007812 10.164062 26.519531 C 11.289062 27.132812 12.53125 27.148438 13.800781 26.574219 C 15.277344 25.898438 15.128906 24.132812 15.046875 23.609375 C 14.933594 22.863281 14.535156 22.375 13.835938 22.113281 C 13.246094 21.894531 12.632812 21.851562 12.105469 21.839844 Z M 12.105469 21.839844 " fill-opacity="1" fill-rule="nonzero"/></svg>